<svg width="1079.689" height="145.9" viewBox="0 0 1079.689 145.9" xmlns="http://www.w3.org/2000/svg"><g id="svgGroup" stroke-linecap="round" fill-rule="evenodd" font-size="9pt" stroke="#000000" stroke-width="0.25mm" fill="#ffffff" style="stroke:#000000;stroke-width:0.25mm;fill:#ffffff"><path d="M 308.203 39.746 L 308.203 138.281 Q 308.203 140.823 307.285 142.005 A 2.686 2.686 0 0 1 306.983 142.334 Q 305.869 143.359 303.332 143.448 A 14.148 14.148 0 0 1 302.832 143.457 L 282.031 143.457 Q 279.102 143.457 277.881 142.334 Q 276.66 141.211 276.66 138.281 L 276.66 29.59 Q 276.66 19.824 278.467 14.111 Q 280.274 8.398 285.498 5.908 A 20.619 20.619 0 0 1 289.447 4.542 Q 294.023 3.418 300.781 3.418 L 326.66 3.418 A 97.297 97.297 0 0 1 345.266 5.034 Q 375.059 10.867 377.432 37.765 A 54.78 54.78 0 0 1 377.637 42.578 A 58.363 58.363 0 0 1 377.12 50.586 Q 376.198 57.23 373.633 62.109 A 38.138 38.138 0 0 1 369.296 68.698 A 29.603 29.603 0 0 1 363.672 73.975 A 58.35 58.35 0 0 1 357.764 77.698 A 44.851 44.851 0 0 1 351.953 80.371 L 351.953 80.859 A 53.497 53.497 0 0 1 359.692 87.093 A 68.017 68.017 0 0 1 364.404 92.139 Q 370.313 99.121 375.098 107.275 Q 379.883 115.43 383.203 123.389 A 101.507 101.507 0 0 1 385.563 129.573 Q 387.039 133.887 387.793 137.598 A 18.599 18.599 0 0 1 387.978 138.677 Q 388.275 140.811 387.842 141.992 A 1.86 1.86 0 0 1 386.884 143.019 Q 386.158 143.388 384.946 143.446 A 9.845 9.845 0 0 1 384.473 143.457 L 361.914 143.457 A 10.157 10.157 0 0 1 359.603 143.205 A 8.023 8.023 0 0 1 357.471 142.383 Q 355.829 141.456 354.44 138.423 A 22.823 22.823 0 0 1 354.004 137.402 Q 346.582 118.75 336.914 106.982 Q 328.644 96.916 320.873 90.244 A 87.45 87.45 0 0 0 318.262 88.086 A 55.579 55.579 0 0 1 316.304 86.457 Q 313.499 84.003 312.762 82.496 A 2.22 2.22 0 0 1 312.5 81.543 Q 312.5 80.282 313.709 78.257 A 20.77 20.77 0 0 1 314.356 77.246 A 22.166 22.166 0 0 1 315.193 76.142 Q 316.197 74.894 317.676 73.344 A 68.917 68.917 0 0 1 317.774 73.242 A 45.094 45.094 0 0 1 319.12 71.892 Q 320.527 70.543 321.662 69.739 A 13.338 13.338 0 0 1 321.68 69.727 A 18.811 18.811 0 0 1 322.564 69.137 Q 323.379 68.628 324.002 68.385 A 4.136 4.136 0 0 1 324.365 68.262 Q 325.391 67.969 327.539 67.969 A 17.202 17.202 0 0 0 334.168 66.724 A 16.088 16.088 0 0 0 339.6 62.988 Q 344.434 58.008 344.434 47.266 A 31.836 31.836 0 0 0 343.994 41.78 Q 342.932 35.722 339.307 32.373 A 17.047 17.047 0 0 0 331.974 28.449 Q 329.346 27.751 326.229 27.653 A 32.836 32.836 0 0 0 325.196 27.637 L 319.336 27.637 Q 313.907 27.637 311.388 29.577 A 5.617 5.617 0 0 0 310.547 30.371 A 7.774 7.774 0 0 0 309.216 32.705 Q 308.364 34.957 308.229 38.405 A 34.29 34.29 0 0 0 308.203 39.746 Z M 47.363 27.637 L 42.676 27.637 Q 37.247 27.637 34.728 29.577 A 5.617 5.617 0 0 0 33.887 30.371 A 7.774 7.774 0 0 0 32.556 32.705 Q 31.704 34.957 31.569 38.405 A 34.29 34.29 0 0 0 31.543 39.746 L 31.543 138.281 Q 31.543 140.823 30.624 142.005 A 2.686 2.686 0 0 1 30.322 142.334 Q 29.209 143.359 26.672 143.448 A 14.148 14.148 0 0 1 26.172 143.457 L 5.371 143.457 Q 2.442 143.457 1.221 142.334 Q 0 141.211 0 138.281 L 0 29.59 Q 0 19.824 1.807 14.111 Q 3.613 8.398 8.838 5.908 A 20.619 20.619 0 0 1 12.787 4.542 Q 17.363 3.418 24.121 3.418 L 47.363 3.418 A 114.473 114.473 0 0 1 61.978 4.287 Q 79.181 6.508 88.867 14.404 A 34.794 34.794 0 0 1 100.369 32.411 Q 102.035 38.286 102.296 45.378 A 72.748 72.748 0 0 1 102.344 48.047 A 66.855 66.855 0 0 1 101.389 59.683 Q 99.744 68.983 95.264 75.781 A 42.637 42.637 0 0 1 76.904 91.602 Q 65.625 96.68 53.028 96.68 A 8.436 8.436 0 0 1 50.955 96.437 A 6.467 6.467 0 0 1 48.731 95.41 Q 47.484 94.557 45.929 93.219 A 61.177 61.177 0 0 1 44.336 91.797 A 73.154 73.154 0 0 1 42.349 89.888 Q 40.625 88.171 38.672 86.035 Q 37.5 84.668 37.5 83.594 A 2.433 2.433 0 0 1 37.665 82.747 Q 37.94 82.007 38.672 81.152 A 85.901 85.901 0 0 1 42.708 76.88 Q 44.69 74.929 46.541 73.418 A 35.782 35.782 0 0 1 49.707 71.094 Q 50.573 70.517 51.971 70.366 A 9.868 9.868 0 0 1 53.028 70.313 A 15.382 15.382 0 0 0 64.198 65.638 A 19.907 19.907 0 0 0 64.502 65.332 A 14.354 14.354 0 0 0 67.595 60.281 Q 69.257 55.837 69.141 49.219 A 39.286 39.286 0 0 0 68.686 43.347 Q 68.204 40.337 67.214 37.969 A 14.039 14.039 0 0 0 63.233 32.422 A 19.73 19.73 0 0 0 55.923 28.706 Q 53.069 27.904 49.681 27.704 A 39.251 39.251 0 0 0 47.363 27.637 Z M 559.571 41.211 L 559.571 63.477 L 594.238 63.477 A 11.336 11.336 0 0 1 595.464 63.538 Q 596.796 63.684 597.615 64.17 A 3.158 3.158 0 0 1 597.754 64.258 A 49.08 49.08 0 0 1 600.672 66.452 A 63.451 63.451 0 0 1 603.028 68.457 A 59.883 59.883 0 0 1 605.813 71.12 Q 607.218 72.548 608.694 74.209 A 96.838 96.838 0 0 1 608.789 74.316 Q 609.556 75.313 609.721 76.008 A 1.559 1.559 0 0 1 609.766 76.367 A 1.929 1.929 0 0 1 609.617 77.084 Q 609.399 77.629 608.862 78.239 A 6.908 6.908 0 0 1 608.789 78.32 Q 605.859 81.628 603.204 84.021 A 50.965 50.965 0 0 1 603.028 84.18 A 62.458 62.458 0 0 1 600.342 86.45 A 48.285 48.285 0 0 1 597.754 88.379 A 5.481 5.481 0 0 1 596.314 88.936 Q 595.678 89.09 594.935 89.138 A 10.787 10.787 0 0 1 594.238 89.16 L 559.571 89.16 L 559.571 138.281 Q 559.571 140.823 558.652 142.005 A 2.686 2.686 0 0 1 558.35 142.334 Q 557.236 143.359 554.7 143.448 A 14.148 14.148 0 0 1 554.199 143.457 L 533.399 143.457 Q 530.469 143.457 529.248 142.334 Q 528.028 141.211 528.028 138.281 L 528.028 29.59 Q 528.028 19.824 529.834 14.111 Q 531.641 8.398 536.865 5.908 A 20.619 20.619 0 0 1 540.815 4.542 Q 545.391 3.418 552.149 3.418 L 598.242 3.418 A 11.336 11.336 0 0 1 599.468 3.48 Q 600.8 3.625 601.619 4.112 A 3.158 3.158 0 0 1 601.758 4.199 A 49.08 49.08 0 0 1 604.676 6.393 A 63.451 63.451 0 0 1 607.031 8.398 A 59.883 59.883 0 0 1 609.817 11.061 Q 611.222 12.489 612.698 14.15 A 96.838 96.838 0 0 1 612.793 14.258 Q 613.559 15.254 613.724 15.949 A 1.559 1.559 0 0 1 613.77 16.309 A 1.929 1.929 0 0 1 613.621 17.025 Q 613.403 17.571 612.866 18.18 A 6.908 6.908 0 0 1 612.793 18.262 Q 609.863 21.57 607.208 23.963 A 50.965 50.965 0 0 1 607.031 24.121 A 62.458 62.458 0 0 1 604.346 26.392 A 48.285 48.285 0 0 1 601.758 28.32 A 5.481 5.481 0 0 1 600.318 28.878 Q 599.682 29.032 598.939 29.08 A 10.787 10.787 0 0 1 598.242 29.102 L 570.703 29.102 Q 565.274 29.102 562.755 31.042 A 5.617 5.617 0 0 0 561.914 31.836 A 7.774 7.774 0 0 0 560.583 34.169 Q 559.731 36.422 559.596 39.87 A 34.29 34.29 0 0 0 559.571 41.211 Z M 467.676 29.102 L 467.676 138.281 Q 467.676 140.823 466.757 142.005 A 2.686 2.686 0 0 1 466.455 142.334 Q 465.341 143.359 462.805 143.448 A 14.148 14.148 0 0 1 462.305 143.457 L 441.504 143.457 Q 438.574 143.457 437.354 142.334 Q 436.133 141.211 436.133 138.281 L 436.133 29.102 L 407.031 29.102 A 11.336 11.336 0 0 1 405.806 29.04 Q 404.474 28.895 403.655 28.408 A 3.158 3.158 0 0 1 403.516 28.32 Q 400.977 26.563 398.291 24.121 Q 395.784 21.842 392.894 18.711 A 125.391 125.391 0 0 1 392.481 18.262 Q 391.714 17.266 391.549 16.57 A 1.559 1.559 0 0 1 391.504 16.211 A 1.929 1.929 0 0 1 391.653 15.494 Q 391.871 14.949 392.408 14.339 A 6.908 6.908 0 0 1 392.481 14.258 A 110.572 110.572 0 0 1 395.131 11.454 Q 396.781 9.772 398.291 8.398 A 56.592 56.592 0 0 1 401.266 5.868 A 44.388 44.388 0 0 1 403.516 4.199 A 5.481 5.481 0 0 1 404.956 3.642 Q 405.592 3.488 406.335 3.44 A 10.787 10.787 0 0 1 407.031 3.418 L 496.875 3.418 A 11.336 11.336 0 0 1 498.101 3.48 Q 499.432 3.625 500.252 4.112 A 3.158 3.158 0 0 1 500.391 4.199 A 49.08 49.08 0 0 1 503.309 6.393 A 63.451 63.451 0 0 1 505.664 8.398 A 59.883 59.883 0 0 1 508.449 11.061 Q 509.855 12.489 511.331 14.15 A 96.838 96.838 0 0 1 511.426 14.258 Q 512.192 15.254 512.357 15.949 A 1.559 1.559 0 0 1 512.403 16.309 A 1.929 1.929 0 0 1 512.254 17.025 Q 512.036 17.571 511.499 18.18 A 6.908 6.908 0 0 1 511.426 18.262 Q 508.496 21.57 505.841 23.963 A 50.965 50.965 0 0 1 505.664 24.121 A 62.458 62.458 0 0 1 502.979 26.392 A 48.285 48.285 0 0 1 500.391 28.32 A 5.481 5.481 0 0 1 498.951 28.878 Q 498.314 29.032 497.572 29.08 A 10.787 10.787 0 0 1 496.875 29.102 L 467.676 29.102 Z M 166.142 144.21 A 88.985 88.985 0 0 0 183.887 145.898 Q 204.981 145.898 220.313 137.939 A 53.291 53.291 0 0 0 230.524 131.061 A 56.244 56.244 0 0 0 243.946 113.721 A 63.378 63.378 0 0 0 247.147 106.282 Q 249.832 98.791 251.103 89.812 A 123.968 123.968 0 0 0 252.246 72.461 A 125.275 125.275 0 0 0 251.805 61.745 Q 250.867 50.833 247.941 41.861 A 56.983 56.983 0 0 0 234.473 19.092 A 58.31 58.31 0 0 0 206.45 3.401 A 83.865 83.865 0 0 0 186.133 1.074 Q 153.516 1.074 135.254 19.482 A 54.553 54.553 0 0 0 124.671 34.773 Q 120.508 43.593 118.602 54.759 A 122.272 122.272 0 0 0 116.992 75.293 A 125.918 125.918 0 0 0 117.13 81.231 Q 117.541 89.943 119.186 97.486 A 67.499 67.499 0 0 0 125.244 114.551 Q 133.496 130.273 148.535 138.086 A 66.89 66.89 0 0 0 166.142 144.21 Z M 676.103 144.21 A 88.985 88.985 0 0 0 693.848 145.898 Q 714.942 145.898 730.274 137.939 A 53.291 53.291 0 0 0 740.485 131.061 A 56.244 56.244 0 0 0 753.906 113.721 A 63.378 63.378 0 0 0 757.108 106.282 Q 759.793 98.791 761.064 89.812 A 123.968 123.968 0 0 0 762.207 72.461 A 125.275 125.275 0 0 0 761.765 61.745 Q 760.828 50.833 757.902 41.861 A 56.983 56.983 0 0 0 744.434 19.092 A 58.31 58.31 0 0 0 716.411 3.401 A 83.865 83.865 0 0 0 696.094 1.074 Q 663.477 1.074 645.215 19.482 A 54.553 54.553 0 0 0 634.632 34.773 Q 630.469 43.593 628.563 54.759 A 122.272 122.272 0 0 0 626.953 75.293 A 125.918 125.918 0 0 0 627.09 81.231 Q 627.502 89.943 629.147 97.486 A 67.499 67.499 0 0 0 635.205 114.551 Q 643.457 130.273 658.496 138.086 A 66.89 66.89 0 0 0 676.103 144.21 Z M 993.584 144.21 A 88.985 88.985 0 0 0 1011.328 145.898 Q 1032.422 145.898 1047.754 137.939 A 53.291 53.291 0 0 0 1057.966 131.061 A 56.244 56.244 0 0 0 1071.387 113.721 A 63.378 63.378 0 0 0 1074.588 106.282 Q 1077.273 98.791 1078.545 89.812 A 123.968 123.968 0 0 0 1079.688 72.461 A 125.275 125.275 0 0 0 1079.246 61.745 Q 1078.309 50.833 1075.382 41.861 A 56.983 56.983 0 0 0 1061.914 19.092 A 58.31 58.31 0 0 0 1033.892 3.401 A 83.865 83.865 0 0 0 1013.574 1.074 Q 980.957 1.074 962.696 19.482 A 54.553 54.553 0 0 0 952.112 34.773 Q 947.949 43.593 946.043 54.759 A 122.272 122.272 0 0 0 944.434 75.293 A 125.918 125.918 0 0 0 944.571 81.231 Q 944.982 89.943 946.628 97.486 A 67.499 67.499 0 0 0 952.686 114.551 Q 960.938 130.273 975.977 138.086 A 66.89 66.89 0 0 0 993.584 144.21 Z M 859.278 143.457 L 810.742 143.457 Q 801.598 143.457 796.449 141.359 A 16.576 16.576 0 0 1 795.459 140.918 A 13.126 13.126 0 0 1 788.574 133.062 A 16.922 16.922 0 0 1 788.428 132.617 A 33.059 33.059 0 0 1 787.399 128.206 Q 786.621 123.566 786.621 117.285 L 786.621 19.043 A 13.195 13.195 0 0 1 786.707 17.482 Q 786.911 15.776 787.598 14.746 A 59.323 59.323 0 0 1 791.931 9.186 Q 794.268 6.51 797.159 3.725 A 113.548 113.548 0 0 1 799.903 1.172 A 8.314 8.314 0 0 1 800.674 0.619 Q 801.513 0.093 802.202 0.014 A 2.101 2.101 0 0 1 802.442 0 A 2.691 2.691 0 0 1 803.524 0.241 Q 803.919 0.413 804.324 0.709 A 6.352 6.352 0 0 1 804.883 1.172 A 87.52 87.52 0 0 1 808.381 4.354 Q 810.137 6.044 811.584 7.657 A 51.084 51.084 0 0 1 812.11 8.252 A 81.234 81.234 0 0 1 815.158 11.965 A 63.546 63.546 0 0 1 817.188 14.746 Q 817.932 15.937 818.109 17.808 A 13.125 13.125 0 0 1 818.164 19.043 L 818.164 105.664 Q 818.164 111.315 819.913 114.198 A 7.05 7.05 0 0 0 820.508 115.039 Q 822.852 117.871 829.297 117.871 L 859.278 117.773 A 11.336 11.336 0 0 1 860.503 117.835 Q 861.835 117.98 862.654 118.467 A 3.158 3.158 0 0 1 862.793 118.555 A 49.08 49.08 0 0 1 865.711 120.749 A 63.451 63.451 0 0 1 868.067 122.754 A 59.883 59.883 0 0 1 870.852 125.417 Q 872.257 126.845 873.733 128.506 A 96.838 96.838 0 0 1 873.828 128.613 Q 874.595 129.609 874.76 130.305 A 1.559 1.559 0 0 1 874.805 130.664 A 1.929 1.929 0 0 1 874.656 131.381 Q 874.438 131.926 873.901 132.536 A 6.908 6.908 0 0 1 873.828 132.617 Q 870.899 135.925 868.243 138.318 A 50.965 50.965 0 0 1 868.067 138.477 A 62.458 62.458 0 0 1 865.381 140.747 A 48.285 48.285 0 0 1 862.793 142.676 A 5.481 5.481 0 0 1 861.353 143.233 Q 860.717 143.387 859.974 143.435 A 10.787 10.787 0 0 1 859.278 143.457 Z M 920.02 19.043 L 920.02 138.281 Q 920.02 140.823 919.101 142.005 A 2.686 2.686 0 0 1 918.799 142.334 Q 917.685 143.359 915.149 143.448 A 14.148 14.148 0 0 1 914.649 143.457 L 893.848 143.457 Q 890.918 143.457 889.697 142.334 Q 888.477 141.211 888.477 138.281 L 888.477 19.043 A 13.195 13.195 0 0 1 888.563 17.482 Q 888.767 15.776 889.453 14.746 A 59.323 59.323 0 0 1 893.787 9.186 Q 896.123 6.51 899.015 3.725 A 113.548 113.548 0 0 1 901.758 1.172 A 8.314 8.314 0 0 1 902.53 0.619 Q 903.368 0.093 904.058 0.014 A 2.101 2.101 0 0 1 904.297 0 A 2.691 2.691 0 0 1 905.379 0.241 Q 905.774 0.413 906.179 0.709 A 6.352 6.352 0 0 1 906.738 1.172 A 87.52 87.52 0 0 1 910.237 4.354 Q 911.992 6.044 913.439 7.657 A 51.084 51.084 0 0 1 913.965 8.252 A 81.234 81.234 0 0 1 917.014 11.965 A 63.546 63.546 0 0 1 919.043 14.746 Q 919.787 15.937 919.964 17.808 A 13.125 13.125 0 0 1 920.02 19.043 Z M 184.473 119.531 A 38.673 38.673 0 0 0 195.031 118.175 A 27.06 27.06 0 0 0 210.547 106.934 A 46.742 46.742 0 0 0 216.985 92.2 Q 219.043 84.12 219.043 74.219 A 109.813 109.813 0 0 0 218.41 62.009 Q 216.791 47.583 211.035 39.16 A 25.752 25.752 0 0 0 195.178 28.529 A 42.309 42.309 0 0 0 185.254 27.441 Q 150.196 27.441 150.196 73.633 Q 150.196 89.167 154.997 100.178 A 42.945 42.945 0 0 0 158.643 106.885 A 27.528 27.528 0 0 0 178.761 119.158 A 42.027 42.027 0 0 0 184.473 119.531 Z M 694.434 119.531 A 38.673 38.673 0 0 0 704.992 118.175 A 27.06 27.06 0 0 0 720.508 106.934 A 46.742 46.742 0 0 0 726.946 92.2 Q 729.004 84.12 729.004 74.219 A 109.813 109.813 0 0 0 728.371 62.009 Q 726.752 47.583 720.996 39.16 A 25.752 25.752 0 0 0 705.139 28.529 A 42.309 42.309 0 0 0 695.215 27.441 Q 660.156 27.441 660.156 73.633 Q 660.156 89.167 664.958 100.178 A 42.945 42.945 0 0 0 668.604 106.885 A 27.528 27.528 0 0 0 688.722 119.158 A 42.027 42.027 0 0 0 694.434 119.531 Z M 1011.914 119.531 A 38.673 38.673 0 0 0 1022.472 118.175 A 27.06 27.06 0 0 0 1037.988 106.934 A 46.742 46.742 0 0 0 1044.426 92.2 Q 1046.485 84.12 1046.485 74.219 A 109.813 109.813 0 0 0 1045.851 62.009 Q 1044.232 47.583 1038.477 39.16 A 25.752 25.752 0 0 0 1022.62 28.529 A 42.309 42.309 0 0 0 1012.696 27.441 Q 977.637 27.441 977.637 73.633 Q 977.637 89.167 982.438 100.178 A 42.945 42.945 0 0 0 986.084 106.885 A 27.528 27.528 0 0 0 1006.203 119.158 A 42.027 42.027 0 0 0 1011.914 119.531 Z" vector-effect="non-scaling-stroke"/></g></svg>